<?xml version="1.0" encoding="utf-8"?>
<svg version="1.1" xmlns:xlink="http://www.w3.org/1999/xlink" width="40px" height="40px" viewBox="289 742.5  40 40" xmlns="http://www.w3.org/2000/svg">
  <path d="M 309 747.5  C 317.4 747.5  324 754.1  324 762.5  C 324 770.9  317.4 777.5  309 777.5  C 300.6 777.5  294 770.9  294 762.5  C 294 754.1  300.6 747.5  309 747.5  Z " fill-rule="nonzero" fill="#ffffff" stroke="none" />
  <path d="M 309 745.5  C 318.52 745.5  326 752.98  326 762.5  C 326 772.02  318.52 779.5  309 779.5  C 299.48 779.5  292 772.02  292 762.5  C 292 752.98  299.48 745.5  309 745.5  Z " stroke-width="6" stroke="#cccccc" fill="none" />
  <path d="M 309 772.5  C 303.4 772.5  299 768.1  299 762.5  C 299 756.9  303.4 752.5  309 752.5  C 314.6 752.5  319 756.9  319 762.5  C 319 768.1  314.6 772.5  309 772.5  " fill-rule="nonzero" fill="#cccccc" stroke="none" />
</svg>