<?xml version="1.0" encoding="utf-8"?>
<svg version="1.1" xmlns:xlink="http://www.w3.org/1999/xlink" width="40px" height="40px" viewBox="789 742.5  40 40" xmlns="http://www.w3.org/2000/svg">
  <path d="M 809 747.5  C 817.4 747.5  824 754.1  824 762.5  C 824 770.9  817.4 777.5  809 777.5  C 800.6 777.5  794 770.9  794 762.5  C 794 754.1  800.6 747.5  809 747.5  Z " fill-rule="nonzero" fill="#ffffff" stroke="none" />
  <path d="M 809 745.5  C 818.52 745.5  826 752.98  826 762.5  C 826 772.02  818.52 779.5  809 779.5  C 799.48 779.5  792 772.02  792 762.5  C 792 752.98  799.48 745.5  809 745.5  Z " stroke-width="6" stroke="#1890ff" fill="none" />
  <path d="M 809 772.5  C 803.4 772.5  799 768.1  799 762.5  C 799 756.9  803.4 752.5  809 752.5  C 814.6 752.5  819 756.9  819 762.5  C 819 768.1  814.6 772.5  809 772.5  " fill-rule="nonzero" fill="#1890ff" stroke="none" />
</svg>